<?xml version="1.0" encoding="utf-8"?>
<!-- Generator: Adobe Illustrator 25.4.1, SVG Export Plug-In . SVG Version: 6.00 Build 0)  -->
<svg version="1.1" id="Слой_1" xmlns="http://www.w3.org/2000/svg" xmlns:xlink="http://www.w3.org/1999/xlink" x="0px" y="0px"
	 viewBox="0 0 50 50" style="enable-background:new 0 0 50 50;" xml:space="preserve">
<style type="text/css">
	.st0{fill:#3F5487;}
	.st1{fill:#FFFFFF;stroke:#3F5487;stroke-miterlimit:10;}
</style>
<g id="circle">
	<g>
		<circle class="st0" cx="25" cy="25" r="24.5"/>
		<path class="st0" d="M25,1c13.2,0,24,10.8,24,24S38.2,49,25,49S1,38.2,1,25S11.8,1,25,1 M25,0C11.2,0,0,11.2,0,25s11.2,25,25,25
			s25-11.2,25-25S38.8,0,25,0L25,0z"/>
	</g>
</g>
<g id="arr">
	<polygon class="st1" points="24.7,5.7 8,25 16.2,25 16.2,41.5 24.7,41.5 25,41.5 33.5,41.5 33.5,25 41.7,25 25,5.7 	"/>
</g>
</svg>
